# xmcd
#
# Track frame offsets:
#	150
#	9715
#	18277
#	27588
#	39751
#	52024
#	61836
#	75686
#	87203
#	96766
#
# Disc length: 1473 seconds
#
# Revision: 0
# Processed by: cddbd v1.5.2PL0 Copyright (c) Steve Scherf et al.
# Submitted via: dBpowerAMP V4.0
#
DISCID=6f05bf0a
DTITLE=Kay Adams - Make Mine Country
DYEAR=1967
DGENRE=Country
TTITLE0=Six Days A'waiting 
TTITLE1=Old Heart Get Ready
TTITLE2=Anymore
TTITLE3=Don't Talk Trouble To Me
TTITLE4=Trapped
TTITLE5=Roll Out The Red Carpet
TTITLE6=I Cried At Your Wedding
TTITLE7=Honky Tonk Heartache
TTITLE8=Be Nice To Everybody
TTITLE9=She Didn't Color Daddy
EXTD=
EXTT0=
EXTT1=
EXTT2=
EXTT3=
EXTT4=
EXTT5=
EXTT6=
EXTT7=
EXTT8=
EXTT9=
PLAYORDER=
